<svg width="122" height="18" viewBox="0 0 122 18" fill="none" xmlns="http://www.w3.org/2000/svg">
    <path d="M98.4949 4.19317C97.6209 4.19317 96.8169 4.30015 96.0828 4.51412C95.3486 4.71026 94.7106 5.02229 94.1688 5.45023C93.6269 5.87816 93.2074 6.43983 92.9103 7.13522C92.6132 7.81278 92.4558 8.64191 92.4384 9.62256L92.4121 16.6301H90V2.45469H92.4384L92.1237 4.59436C92.8404 3.73849 93.7406 3.09659 94.8243 2.66865C95.908 2.22289 97.1315 2 98.4949 2H101.667V4.19317H98.4949Z" fill="url(#paint0_linear)"/>
    <path d="M82.495 4.19317C81.621 4.19317 80.817 4.30015 80.082 4.51412C79.348 4.71026 78.71 5.02229 78.168 5.45023C77.627 5.87816 77.207 6.43983 76.91 7.13522C76.613 7.81278 76.456 8.64191 76.438 9.62256L76.412 16.6301H74V2.45469H76.438L76.123 4.59436C76.84 3.73849 77.74 3.09659 78.824 2.66865C79.908 2.22289 81.131 2 82.495 2H85.667V4.19317H82.495Z" fill="url(#paint1_linear)"/>
    <path d="M117.641 11.9659C117.624 13.4815 117.16 14.6315 116.251 15.4161C115.36 16.2006 114.058 16.5929 112.345 16.5929H111.453C109.74 16.5929 108.412 16.2006 107.468 15.4161C106.524 14.6137 106.035 13.4012 106 11.7786C106 10.1917 106.481 9.02376 107.442 8.27489C108.403 7.50817 109.74 7.12481 111.453 7.12481H119.503C119.415 6.34027 119.197 5.69837 118.847 5.19911C118.497 4.68202 118.087 4.28083 117.615 3.99554C117.143 3.69242 116.627 3.48737 116.068 3.38039C115.526 3.25557 115.019 3.19316 114.547 3.19316H114.285C113.813 3.19316 113.324 3.22883 112.817 3.30015C112.31 3.37147 111.82 3.5052 111.349 3.70134C110.877 3.87964 110.448 4.12927 110.064 4.45022C109.679 4.77117 109.391 5.19019 109.199 5.70728H106.629C106.717 5.01189 106.961 4.3789 107.363 3.80832C107.783 3.23774 108.325 2.7474 108.989 2.3373C109.671 1.90936 110.448 1.5795 111.322 1.3477C112.214 1.1159 113.158 1 114.154 1H114.364C115.727 1 116.889 1.16048 117.851 1.48143C118.812 1.80238 119.599 2.29272 120.21 2.95245C120.822 3.61218 121.268 4.45022 121.548 5.46657C121.827 6.48291 121.976 7.68648 121.993 9.07726V15.9243H119.555V9.26446L116.854 9.23776C117.379 9.96876 117.641 10.8782 117.641 11.9659ZM108.438 11.7786C108.456 12.6345 108.701 13.2853 109.172 13.7311C109.644 14.159 110.405 14.373 111.453 14.373H112.345C113.359 14.373 114.102 14.159 114.574 13.7311C115.045 13.3032 115.299 12.6523 115.334 11.7786C115.299 10.9049 115.054 10.263 114.6 9.85286C114.145 9.44276 113.394 9.23776 112.345 9.23776H111.453C110.405 9.23776 109.644 9.44276 109.172 9.85286C108.701 10.263 108.456 10.9049 108.438 11.7786Z" fill="url(#paint2_linear)"/>
    <path d="M65.641 11.9659C65.6236 13.4815 65.1604 14.6315 64.2515 15.4161C63.36 16.2006 62.0578 16.5929 60.3449 16.5929H59.4534C57.7405 16.5929 56.4121 16.2006 55.4682 15.4161C54.5243 14.6137 54.0349 13.4012 54 11.7786C54 10.1917 54.4806 9.02376 55.442 8.27489C56.4033 7.50817 57.7405 7.12481 59.4534 7.12481H67.5026C67.4152 6.34027 67.1967 5.69837 66.8471 5.19911C66.4975 4.68202 66.0868 4.28083 65.6148 3.99554C65.1429 3.69242 64.6273 3.48737 64.0679 3.38039C63.5261 3.25557 63.0192 3.19316 62.5473 3.19316H62.2851C61.8131 3.19316 61.3237 3.22883 60.8168 3.30015C60.3099 3.37147 59.8205 3.5052 59.3486 3.70134C58.8766 3.87964 58.4484 4.12927 58.0639 4.45022C57.6793 4.77117 57.3909 5.19019 57.1986 5.70728H54.6292C54.7166 5.01189 54.9613 4.3789 55.3633 3.80832C55.7828 3.23774 56.3247 2.7474 56.9889 2.3373C57.6706 1.90936 58.4484 1.5795 59.3224 1.3477C60.2138 1.1159 61.1577 1 62.154 1H62.3637C63.7271 1 64.8894 1.16048 65.8508 1.48143C66.8122 1.80238 67.5987 2.29272 68.2105 2.95245C68.8222 3.61218 69.268 4.45022 69.5476 5.46657C69.8273 6.48291 69.9759 7.68648 69.9933 9.07726V15.9243H67.555V9.26446L64.8545 9.23776C65.3789 9.96876 65.641 10.8782 65.641 11.9659ZM56.4383 11.7786C56.4558 12.6345 56.7005 13.2853 57.1724 13.7311C57.6444 14.159 58.4047 14.373 59.4534 14.373H60.3449C61.3587 14.373 62.1015 14.159 62.5735 13.7311C63.0454 13.3032 63.2988 12.6523 63.3338 11.7786C63.2988 10.9049 63.0541 10.263 62.5997 9.85286C62.1452 9.44276 61.3936 9.23776 60.3449 9.23776H59.4534C58.4047 9.23776 57.6444 9.44276 57.1724 9.85286C56.7005 10.263 56.4558 10.9049 56.4383 11.7786Z" fill="url(#paint3_linear)"/>
    <path d="M50.0458 11.3239C49.9235 12.2154 49.6351 13 49.1806 13.6776C48.7436 14.3373 48.1755 14.89 47.4764 15.3358C46.7947 15.7815 46.0081 16.1115 45.1167 16.3255C44.2253 16.5573 43.2639 16.6732 42.2326 16.6732C40.9742 16.6732 39.838 16.5127 38.8242 16.1917C37.8279 15.8886 36.9715 15.4161 36.2548 14.7742C35.5382 14.1323 34.9876 13.321 34.603 12.3403C34.2185 11.3595 34.0175 10.2095 34 8.89005C34 7.57058 34.1923 6.4205 34.5768 5.43982C34.9613 4.44131 35.5032 3.6211 36.2024 2.9792C36.919 2.31946 37.7842 1.82912 38.798 1.50817C39.8118 1.16939 40.9392 1 42.1802 1C43.2115 1 44.1728 1.1159 45.0643 1.34769C45.9732 1.57949 46.7772 1.91827 47.4764 2.36404C48.1755 2.80981 48.7524 3.37147 49.2068 4.04903C49.6613 4.70876 49.9497 5.4844 50.072 6.37593H47.4502C47.3453 5.85884 47.1355 5.40416 46.8209 5.01188C46.5238 4.61961 46.1392 4.28975 45.6673 4.02229C45.2128 3.75483 44.6797 3.54978 44.068 3.40713C43.4737 3.26449 42.8357 3.19316 42.154 3.19316C40.3012 3.21099 38.9029 3.67459 37.959 4.58395C37.0151 5.49331 36.5257 6.91976 36.4908 8.86325C36.5257 10.789 37.0239 12.2066 37.9852 13.1159C38.9641 14.0253 40.3799 14.4799 42.2326 14.4799C43.6135 14.4799 44.7759 14.2214 45.7197 13.7044C46.6636 13.1873 47.2404 12.3937 47.4502 11.3239H50.0458Z" fill="url(#paint4_linear)"/>
    <path d="M29.7537 8.91674C29.7362 10.2184 29.5177 11.3595 29.0982 12.3402C28.6962 13.3031 28.1194 14.1055 27.3678 14.7474C26.6337 15.3893 25.751 15.8707 24.7197 16.1916C23.7059 16.5126 22.5785 16.6731 21.3375 16.6731C20.079 16.6731 18.9429 16.5126 17.9291 16.1916C16.9153 15.8885 16.0413 15.416 15.3072 14.7741C14.5906 14.1322 14.0312 13.3209 13.6292 12.3402C13.2272 11.3595 13.0175 10.2095 13 8.89004C13 7.57058 13.201 6.4205 13.603 5.43982C14.005 4.4413 14.5644 3.6211 15.281 2.97919C16.0151 2.31946 16.8891 1.82912 17.9029 1.50817C18.9341 1.16939 20.0703 1 21.3113 1C22.5698 1 23.7147 1.16047 24.7459 1.48142C25.7772 1.80237 26.6599 2.29272 27.394 2.95245C28.1456 3.59435 28.7224 4.41456 29.1244 5.41307C29.5439 6.41159 29.7537 7.57949 29.7537 8.91674ZM15.4907 8.83654C15.5257 10.7622 16.0413 12.1797 17.0377 13.0891C18.0514 13.9806 19.4847 14.4264 21.3375 14.4264C23.1903 14.4264 24.6323 13.9806 25.6636 13.0891C26.6948 12.1976 27.228 10.78 27.2629 8.83654C27.228 6.89301 26.6861 5.47548 25.6374 4.58395C24.5886 3.67459 23.1379 3.21991 21.2851 3.21991C19.4323 3.21991 18.0077 3.67459 17.0114 4.58395C16.0326 5.47548 15.5257 6.89301 15.4907 8.83654Z" fill="url(#paint5_linear)"/>
    <path d="M7.97041 17.2244C6.65951 17.2422 5.637 17.1352 4.9029 16.9034C4.1687 16.6716 3.61811 16.2615 3.25111 15.6731C2.90151 15.0669 2.683 14.2377 2.5956 13.1857C2.5257 12.1159 2.49081 10.7608 2.49081 9.12036V5.32244H0V3.12927H2.51701V0H4.9553L4.50961 3.12927H9.0716V5.32244H4.9553L4.9291 9.12036C4.9291 10.529 4.94661 11.6256 4.98151 12.4101C5.03401 13.1946 5.1563 13.7741 5.3486 14.1486C5.5583 14.523 5.8642 14.7459 6.2662 14.8172C6.6857 14.8886 7.2625 14.9242 7.9967 14.9242L7.97041 17.2244Z" fill="url(#paint6_linear)"/>
    <defs>
        <linearGradient id="paint0_linear" x1="1.00003" y1="2.00005" x2="66.6471" y2="-51.2454" gradientUnits="userSpaceOnUse">
            <stop stop-color="#EEF208"/>
            <stop offset="1" stop-color="#9745FF"/>
        </linearGradient>
        <linearGradient id="paint1_linear" x1="-0.499968" y1="2.00004" x2="66.1067" y2="-52.2448" gradientUnits="userSpaceOnUse">
            <stop stop-color="#EEF208"/>
            <stop offset="1" stop-color="#9745FF"/>
        </linearGradient>
        <linearGradient id="paint2_linear" x1="1.96402e-05" y1="1.00002" x2="81.5044" y2="-49.6562" gradientUnits="userSpaceOnUse">
            <stop stop-color="#EEF208"/>
            <stop offset="1" stop-color="#9745FF"/>
        </linearGradient>
        <linearGradient id="paint3_linear" x1="-0.499982" y1="1.00003" x2="82.3461" y2="-49.2288" gradientUnits="userSpaceOnUse">
            <stop stop-color="#EEF208"/>
            <stop offset="1" stop-color="#9745FF"/>
        </linearGradient>
        <linearGradient id="paint4_linear" x1="-0.500015" y1="0.999975" x2="82.0274" y2="-48.99" gradientUnits="userSpaceOnUse">
            <stop stop-color="#EEF208"/>
            <stop offset="1" stop-color="#9745FF"/>
        </linearGradient>
        <linearGradient id="paint5_linear" x1="0.500001" y1="2.5" x2="84.1276" y2="-46.9927" gradientUnits="userSpaceOnUse">
            <stop stop-color="#EEF208"/>
            <stop offset="1" stop-color="#9745FF"/>
        </linearGradient>
        <linearGradient id="paint6_linear" x1="9.9524e-05" y1="4.00009" x2="40.3222" y2="-47.0804" gradientUnits="userSpaceOnUse">
            <stop stop-color="#F8FD02"/>
            <stop offset="1" stop-color="#9745FF"/>
        </linearGradient>
    </defs>
</svg>